PathFileType	4	(X/Y/Z)	C:\Users\ebm\Documents\Erivelton\Erivelton2\wc10.trc
DataRate	CameraRate	NumFrames	NumMarkers	Units	OrigDataRate	OrigDataStartFrame	OrigNumFrames
150.00	150.00	      8	28	mm	150.00	489	      1302
Frame#	Time	IJ			PX			C7			T8			RAC			RAS			RPS			RAI			RPI			RLE			RME			RRS			RUS			R3M			R5M			LAC			LAS			LPS			LAI			LPI			LLE			LME			LRS			LUS			L3M			L5M			RW			LW			V_mid_elbow_r			V_mid_elbow_l			V_mid_wrist_r			V_mid_wrist_l			V_mid_trunk_low			V_mid_trunk_upp			
		X1	Y1	Z1	X2	Y2	Z2	X3	Y3	Z3	X4	Y4	Z4	X5	Y5	Z5	X6	Y6	Z6	X7	Y7	Z7	X8	Y8	Z8	X9	Y9	Z9	X10	Y10	Z10	X11	Y11	Z11	X12	Y12	Z12	X13	Y13	Z13	X14	Y14	Z14	X15	Y15	Z15	X16	Y16	Z16	X17	Y17	Z17	X18	Y18	Z18	X19	Y19	Z19	X20	Y20	Z20	X21	Y21	Z21	X22	Y22	Z22	X23	Y23	Z23	X24	Y24	Z24	X25	Y25	Z25	X26	Y26	Z26	X27	Y27	Z27	X28	Y28	Z28	

489	3.253							-817.85919	1133.91260	-237.03242	-908.89355	992.73779	-214.28334	-739.06879	1072.82666	-29.16552	-690.45880	881.67297	15.58415	-734.71509	878.06165	37.15703	-669.04675	808.42609	31.02077	-716.42249	801.30322	54.09394	-683.38177	736.43854	53.24115				-475.53683	740.78375	-130.65840	-468.42465	707.94513	-77.21643	-392.66345	706.65295	-123.99737	-405.29337	683.15594	-93.19629	-784.68005	1057.16516	-420.05237	-759.77667	892.81317	-489.32193	-803.27344	873.68030	-482.94403	-726.52502	821.16876	-507.26147	-775.03357	796.48700	-500.07883	-698.11475	732.63287	-516.73517	-739.81921	698.87201	-458.33484	-482.77301	735.40668	-349.71472	-468.99988	706.35974	-407.45087	-396.40167	701.67413	-373.21985	-419.59595	687.14404	-406.39063	-786.32440	298.25110	105.52010	-803.74084	295.73013	-522.42395	
490	3.260							-809.06921	1133.85193	-237.16158	-900.19080	992.73346	-214.45351	-730.43573	1072.93958	-29.23402	-681.49664	881.85846	15.44754	-725.76031	878.18671	36.96154	-660.05811	808.66937	30.87101	-707.27191	801.40717	53.94631	-674.11859	736.51257	52.98040				-466.65915	740.51984	-131.15489	-459.34424	707.95099	-77.70052	-383.94901	706.60046	-124.19164	-396.26270	683.24658	-93.44723	-776.03967	1057.28357	-420.10983	-750.13782	893.07391	-489.25735	-793.85864	873.89880	-483.58005	-716.77448	821.37073	-506.95123	-766.41028	795.80597	-501.04456	-688.41626	732.55286	-515.67877	-730.35645	699.11359	-458.04456	-473.59390	735.13879	-349.54987	-459.50516	706.34406	-406.91602	-386.92291	701.63184	-372.74133	-410.13284	687.34631	-405.97437	-777.57123	298.21201	105.28566	-795.04053	295.82077	-522.55048	
491	3.267							-800.30280	1133.85376	-237.30815	-891.39276	992.78223	-214.60916	-721.63123	1073.07544	-29.41358	-672.53638	882.20569	15.55675	-716.76379	878.26678	36.88711	-650.89014	808.84326	30.67694	-698.32861	801.63202	53.83281	-664.85468	736.68109	52.80420				-457.69296	740.38788	-131.66362	-450.24286	708.03027	-78.03910	-374.88812	706.52594	-124.65918	-387.19510	683.27783	-93.88167	-767.30212	1057.34509	-420.07196	-740.64984	893.25592	-489.24915	-784.30304	874.02332	-483.82083	-707.09241	821.59277	-506.47644	-755.59125	796.93079	-500.06296	-678.91962	733.04053	-515.97076	-720.95465	699.33533	-457.81784	-464.09955	734.97614	-349.12488	-450.02289	706.26166	-406.56070	-377.42847	701.51422	-372.45724	-400.64764	687.33496	-405.73770	-768.78473	298.17676	104.91912	-786.26892	296.03290	-522.87402	
492	3.273							-791.55066	1133.85205	-237.45044	-882.62146	992.80438	-214.76755	-713.20636	1073.28674	-29.41718	-663.63208	882.46777	15.37160	-707.74316	878.37018	36.78456	-641.74323	809.06940	30.53963	-689.13599	801.88141	53.73869	-655.62585	736.98712	52.58860				-448.68063	740.18915	-132.33481	-441.22662	708.06549	-78.40244	-365.89563	706.36896	-125.19999	-378.17563	683.36908	-94.27573	-758.71472	1057.54285	-420.22449	-731.28143	893.45776	-489.06735	-775.02020	874.31641	-484.26178	-697.28778	821.79456	-505.88547	-746.10919	797.14417	-500.16586	-669.41913	733.26819	-515.52972	-711.49133	699.51263	-457.53888	-454.45697	734.79065	-348.84781	-440.50076	706.14679	-406.21262	-367.94482	701.38287	-372.22375	-391.29050	687.40985	-405.55670	-760.21228	298.14206	104.82140	-777.50824	295.98959	-522.95966	
493	3.280							-782.80731	1133.85889	-237.57130	-873.90338	992.82941	-214.91037	-704.57312	1073.44458	-29.51681	-654.08698	882.87872	15.06488	-698.67993	878.58844	36.67551	-632.63867	809.37634	30.39476	-679.94720	802.10028	53.67504	-646.47064	737.30438	52.52646				-439.82834	739.92426	-132.90390	-432.09796	708.12677	-78.89414	-356.89923	706.29919	-125.93510	-369.00327	683.48425	-94.70334	-749.66931	1057.18774	-419.97418	-721.73309	893.58911	-488.83682	-765.74969	874.09955	-483.94608	-685.65637	822.01508	-502.91333	-737.72797	796.31360	-500.87994	-657.31848	735.25800	-513.41376	-702.17450	699.81927	-457.32980	-445.04214	734.67950	-348.66055	-431.12796	706.08136	-406.06598	-358.45169	701.30878	-372.12479	-381.71930	687.33313	-405.30655	-751.44000	298.14423	104.47571	-768.73688	296.04153	-523.25317	
494	3.287							-773.99017	1133.91284	-237.66415	-865.09711	992.86029	-215.03055	-696.08185	1074.07678	-29.25110	-645.70105	882.94464	15.24211	-689.70917	878.87695	36.63712	-623.57111	809.72321	30.24247	-670.79291	802.35583	53.60746	-637.19281	737.59259	52.40601	-681.39508	713.82397	-12.76299	-430.90390	739.77124	-133.40482	-423.17770	708.29291	-79.18855	-347.78195	706.05389	-126.33665	-360.14566	683.39771	-94.70453	-741.39142	1057.75427	-420.26260	-712.54083	893.81201	-488.75571	-756.58624	874.30548	-484.15524	-676.40997	822.30328	-502.64264	-727.52631	797.55170	-499.93332	-650.57086	733.70520	-514.80121	-692.77716	700.00238	-456.99445	-435.46222	734.50909	-348.61017	-421.73917	705.92480	-406.05975	-349.04947	701.12256	-372.17087	-372.39145	687.28241	-405.41586	-742.61969	298.11853	104.31815	-760.05109	296.14734	-523.46265	
495	3.293							-765.27258	1133.94861	-237.77211	-856.38855	993.01459	-215.14445	-687.48370	1074.24219	-29.34015	-636.71881	883.28632	15.13035	-680.72882	879.12439	36.68048	-613.95984	810.15131	29.99758	-661.66418	802.64301	53.59297	-627.92249	737.91876	52.28405	-672.41724	714.11206	-12.68661	-422.06583	739.66687	-133.90091	-414.15741	708.35718	-79.48061	-338.94583	706.01575	-126.73752	-351.20804	683.43835	-95.04093	-732.69879	1057.96545	-420.37277	-703.40369	893.96906	-488.66428	-747.47308	874.42584	-484.24692	-667.17078	822.51886	-502.48929	-721.25574	797.66589	-500.65845	-641.16949	733.60675	-513.75848	-683.47095	700.27948	-456.78775	-425.94583	734.42969	-348.52472	-412.32437	705.75024	-405.96359	-339.55923	700.92676	-372.13077	-363.03360	687.12421	-405.48041	-734.15771	298.18762	104.12980	-751.26178	296.17111	-523.71136	
496	3.300							-756.56024	1133.97742	-237.86522	-847.61078	993.06006	-215.21980	-678.88818	1074.48389	-29.42326	-627.73334	883.60559	15.01633	-671.68402	879.35724	36.67131	-605.11310	810.45209	29.96253	-652.43140	802.88165	53.55548	-618.71985	738.26392	52.16798	-663.30896	714.28705	-12.61638	-413.10397	739.57507	-134.30728	-405.07220	708.53082	-79.81688	-330.33069	705.87988	-126.85783	-342.25357	683.46362	-95.18651	-723.68762	1057.69519	-420.11093	-694.42267	894.10840	-488.60690	-738.43304	874.42474	-484.15619	-658.00067	822.68823	-502.18073	-712.18036	797.88300	-500.44897	-631.92468	733.82599	-513.31940	-674.21082	700.50555	-456.56775	-416.55197	734.24030	-348.47800	-402.92157	705.61169	-405.87939	-330.17905	700.79254	-372.31085	-353.65805	686.94720	-405.56134	-725.57172	298.14197	104.10429	-742.57697	296.24869	-523.77350	
